<svg width="1653" height="348" viewBox="0 0 1653 348" fill="none" xmlns="http://www.w3.org/2000/svg">
<path fill-rule="evenodd" clip-rule="evenodd" d="M0.5 309V301H265V309H0.5Z" fill="#4C4C4C"/>
<path fill-rule="evenodd" clip-rule="evenodd" d="M158.5 120H14V112H158.5V120Z" fill="#4C4C4C"/>
<path fill-rule="evenodd" clip-rule="evenodd" d="M251.5 47H88V39H251.5V47Z" fill="#4C4C4C"/>
<path fill-rule="evenodd" clip-rule="evenodd" d="M96 112.5V43H104V112.5H96Z" fill="#4C4C4C"/>
<path fill-rule="evenodd" clip-rule="evenodd" d="M235 303.5L235 42.5L243 42.5L243 303.5H235Z" fill="#4C4C4C"/>
<path fill-rule="evenodd" clip-rule="evenodd" d="M21 301.5V117H29V301.5H21Z" fill="#4C4C4C"/>
<path fill-rule="evenodd" clip-rule="evenodd" d="M143.5 301.5V117H151.5V301.5H143.5Z" fill="#4C4C4C"/>
<path fill-rule="evenodd" clip-rule="evenodd" d="M45 282V141H53V282H45Z" fill="#4C4C4C"/>
<path fill-rule="evenodd" clip-rule="evenodd" d="M70 282V141H78V282H70Z" fill="#4C4C4C"/>
<path fill-rule="evenodd" clip-rule="evenodd" d="M95 282V141H103V282H95Z" fill="#4C4C4C"/>
<path fill-rule="evenodd" clip-rule="evenodd" d="M120 282V141H128V282H120Z" fill="#4C4C4C"/>
<path d="M116 65.5H128V77.5H116V65.5Z" fill="#4C4C4C"/>
<path d="M139.5 65.5H151.5V77.5H139.5V65.5Z" fill="#4C4C4C"/>
<path d="M163 65.5H175V77.5H163V65.5Z" fill="#4C4C4C"/>
<path d="M186.5 65.5H198.5V77.5H186.5V65.5Z" fill="#4C4C4C"/>
<path d="M210 65.5H222V77.5H210V65.5Z" fill="#4C4C4C"/>
<path d="M163 88.5H175V100.5H163V88.5Z" fill="#4C4C4C"/>
<path d="M186.5 88.5H198.5V100.5H186.5V88.5Z" fill="#4C4C4C"/>
<path d="M210 88.5H222V100.5H210V88.5Z" fill="#4C4C4C"/>
<path d="M163 111.5H175V123.5H163V111.5Z" fill="#4C4C4C"/>
<path d="M186.5 111.5H198.5V123.5H186.5V111.5Z" fill="#4C4C4C"/>
<path d="M210 111.5H222V123.5H210V111.5Z" fill="#4C4C4C"/>
<path d="M163 134.5H175V146.5H163V134.5Z" fill="#4C4C4C"/>
<path d="M186.5 134.5H198.5V146.5H186.5V134.5Z" fill="#4C4C4C"/>
<path d="M210 134.5H222V146.5H210V134.5Z" fill="#4C4C4C"/>
<path d="M163 157.5H175V169.5H163V157.5Z" fill="#4C4C4C"/>
<path d="M186.5 157.5H198.5V169.5H186.5V157.5Z" fill="#4C4C4C"/>
<path d="M210 157.5H222V169.5H210V157.5Z" fill="#4C4C4C"/>
<path d="M163 180.5H175V192.5H163V180.5Z" fill="#4C4C4C"/>
<path d="M186.5 180.5H198.5V192.5H186.5V180.5Z" fill="#4C4C4C"/>
<path d="M210 180.5H222V192.5H210V180.5Z" fill="#4C4C4C"/>
<path d="M163 203.5H175V215.5H163V203.5Z" fill="#4C4C4C"/>
<path d="M186.5 203.5H198.5V215.5H186.5V203.5Z" fill="#4C4C4C"/>
<path d="M210 203.5H222V215.5H210V203.5Z" fill="#4C4C4C"/>
<path d="M163 226.5H175V238.5H163V226.5Z" fill="#4C4C4C"/>
<path d="M186.5 226.5H198.5V238.5H186.5V226.5Z" fill="#4C4C4C"/>
<path d="M210 226.5H222V238.5H210V226.5Z" fill="#4C4C4C"/>
<path d="M163 249.5H175V261.5H163V249.5Z" fill="#4C4C4C"/>
<path d="M186.5 249.5H198.5V261.5H186.5V249.5Z" fill="#4C4C4C"/>
<path d="M210 249.5H222V261.5H210V249.5Z" fill="#4C4C4C"/>
<path d="M163 272.5H175V284.5H163V272.5Z" fill="#4C4C4C"/>
<path d="M186.5 272.5H198.5V284.5H186.5V272.5Z" fill="#4C4C4C"/>
<path d="M210 272.5H222V284.5H210V272.5Z" fill="#4C4C4C"/>
<path d="M333.5 0V348" stroke="#F37021" stroke-width="14"/>
<path d="M486.057 157.418C500.175 161.943 509.225 172.803 509.225 188.731C509.225 210.632 491.849 223.302 458.545 223.302H393.023V96.602H454.925C486.6 96.602 502.89 109.815 502.89 129.544C502.89 142.214 496.374 151.988 486.057 157.418ZM451.305 118.684H422.164V148.549H451.305C465.604 148.549 473.387 143.481 473.387 133.526C473.387 123.571 465.604 118.684 451.305 118.684ZM456.373 201.22C471.577 201.22 479.722 196.514 479.722 185.654C479.722 174.975 471.577 169.907 456.373 169.907H422.164V201.22H456.373Z" fill="#4C4C4C"/>
<path d="M556.402 138.775C563.28 129.363 574.864 124.476 589.887 124.476V150.54C587.534 150.359 585.724 150.178 583.552 150.178C567.986 150.178 557.669 158.685 557.669 177.328V223.302H529.433V125.924H556.402V138.775Z" fill="#4C4C4C"/>
<path d="M701.18 174.975C701.18 177.147 700.818 180.224 700.637 182.577H626.97C629.685 194.704 640.002 202.125 654.844 202.125C665.161 202.125 672.582 199.048 679.279 192.713L694.302 209.003C685.252 219.32 671.677 224.75 654.12 224.75C620.454 224.75 598.553 203.573 598.553 174.613C598.553 145.472 620.816 124.476 650.5 124.476C679.098 124.476 701.18 143.662 701.18 174.975ZM650.681 145.834C637.83 145.834 628.599 153.617 626.608 166.106H674.573C672.582 153.798 663.351 145.834 650.681 145.834Z" fill="#4C4C4C"/>
<path d="M763.599 225.474C743.508 225.474 723.236 219.501 712.014 210.813L721.969 188.731C732.648 196.514 748.576 201.944 763.78 201.944C781.156 201.944 788.215 196.152 788.215 188.369C788.215 164.658 714.548 180.948 714.548 133.888C714.548 112.349 731.924 94.43 767.943 94.43C783.871 94.43 800.161 98.231 811.926 105.652L802.876 127.915C791.111 121.218 778.984 117.96 767.762 117.96C750.386 117.96 743.689 124.476 743.689 132.44C743.689 155.789 817.356 139.68 817.356 186.197C817.356 207.374 799.799 225.474 763.599 225.474Z" fill="#4C4C4C"/>
<path d="M890.606 198.686L898.208 218.596C892.416 222.759 883.909 224.75 875.221 224.75C852.234 224.75 838.84 212.985 838.84 189.817V149.816H823.817V128.096H838.84V104.385H867.076V128.096H891.33V149.816H867.076V189.455C867.076 197.781 871.601 202.306 879.203 202.306C883.366 202.306 887.529 201.039 890.606 198.686Z" fill="#4C4C4C"/>
<path d="M1006.44 174.975C1006.44 177.147 1006.08 180.224 1005.9 182.577H932.23C934.945 194.704 945.262 202.125 960.104 202.125C970.421 202.125 977.842 199.048 984.539 192.713L999.562 209.003C990.512 219.32 976.937 224.75 959.38 224.75C925.714 224.75 903.814 203.573 903.814 174.613C903.814 145.472 926.076 124.476 955.76 124.476C984.359 124.476 1006.44 143.662 1006.44 174.975ZM955.942 145.834C943.091 145.834 933.859 153.617 931.868 166.106H979.833C977.842 153.798 968.612 145.834 955.942 145.834Z" fill="#4C4C4C"/>
<path d="M1068.86 225.474C1048.77 225.474 1028.5 219.501 1017.28 210.813L1027.23 188.731C1037.91 196.514 1053.84 201.944 1069.04 201.944C1086.42 201.944 1093.48 196.152 1093.48 188.369C1093.48 164.658 1019.81 180.948 1019.81 133.888C1019.81 112.349 1037.19 94.43 1073.2 94.43C1089.13 94.43 1105.42 98.231 1117.19 105.652L1108.14 127.915C1096.37 121.218 1084.25 117.96 1073.02 117.96C1055.65 117.96 1048.95 124.476 1048.95 132.44C1048.95 155.789 1122.62 139.68 1122.62 186.197C1122.62 207.374 1105.06 225.474 1068.86 225.474Z" fill="#4C4C4C"/>
<path d="M1140.66 223.302V89H1168.9V223.302H1140.66Z" fill="#4C4C4C"/>
<path d="M1241.44 224.75C1210.49 224.75 1187.86 203.935 1187.86 174.613C1187.86 145.291 1210.49 124.476 1241.44 124.476C1272.39 124.476 1294.83 145.291 1294.83 174.613C1294.83 203.935 1272.39 224.75 1241.44 224.75ZM1241.44 201.582C1255.56 201.582 1266.24 191.446 1266.24 174.613C1266.24 157.78 1255.56 147.644 1241.44 147.644C1227.32 147.644 1216.46 157.78 1216.46 174.613C1216.46 191.446 1227.32 201.582 1241.44 201.582Z" fill="#4C4C4C"/>
<path d="M1371.27 124.476C1398.6 124.476 1419.77 144.024 1419.77 174.613C1419.77 205.202 1398.6 224.75 1371.27 224.75C1359.14 224.75 1349.18 220.949 1341.94 212.985V258.416H1313.71V125.924H1340.68V137.146C1347.74 128.639 1358.23 124.476 1371.27 124.476ZM1366.38 201.582C1380.5 201.582 1391.18 191.446 1391.18 174.613C1391.18 157.78 1380.5 147.644 1366.38 147.644C1352.26 147.644 1341.58 157.78 1341.58 174.613C1341.58 191.446 1352.26 201.582 1366.38 201.582Z" fill="#4C4C4C"/>
<path d="M1534.06 174.975C1534.06 177.147 1533.7 180.224 1533.52 182.577H1459.85C1462.57 194.704 1472.88 202.125 1487.73 202.125C1498.04 202.125 1505.46 199.048 1512.16 192.713L1527.18 209.003C1518.13 219.32 1504.56 224.75 1487 224.75C1453.34 224.75 1431.44 203.573 1431.44 174.613C1431.44 145.472 1453.7 124.476 1483.38 124.476C1511.98 124.476 1534.06 143.662 1534.06 174.975ZM1483.56 145.834C1470.71 145.834 1461.48 153.617 1459.49 166.106H1507.46C1505.46 153.798 1496.23 145.834 1483.56 145.834Z" fill="#4C4C4C"/>
<path d="M1612.05 124.476C1635.04 124.476 1652.41 137.87 1652.41 167.554V223.302H1624.18V171.898C1624.18 156.151 1616.94 148.911 1604.45 148.911C1590.87 148.911 1581.1 157.237 1581.1 175.156V223.302H1552.86V125.924H1579.83V137.327C1587.43 129.001 1598.84 124.476 1612.05 124.476Z" fill="#4C4C4C"/>
</svg>
